<?xml version="1.0" encoding="utf-8"?>
<!-- Generator: Adobe Illustrator 18.1.1, SVG Export Plug-In . SVG Version: 6.00 Build 0)  -->
<svg version="1.1" id="Layer_1" xmlns="http://www.w3.org/2000/svg" xmlns:xlink="http://www.w3.org/1999/xlink" x="0px" y="0px"
	 viewBox="0 423 612 369" enable-background="new 0 423 612 369" xml:space="preserve">
<g>
	<line fill="none" stroke="#000000" stroke-miterlimit="10" x1="336.8" y1="638.9" x2="344.8" y2="646.8"/>
	<line fill="none" stroke="#000000" stroke-miterlimit="10" x1="344.8" y1="645.6" x2="360" y2="630.4"/>
	<circle fill="none" stroke="#000000" stroke-miterlimit="10" cx="348.4" cy="638.3" r="22.6"/>
</g>
<path fill="none" stroke="#000000" stroke-miterlimit="10" d="M61.7,706.6H11.3c-4.9,0-9-4.1-9-9V582.8c0-4.9,4.1-9,9-9h50.5
	c4.9,0,9,4.1,9,9v114.8C70.7,702.6,66.6,706.6,61.7,706.6z"/>
<circle fill="none" stroke="#000000" stroke-miterlimit="10" cx="36.5" cy="695.8" r="6.2"/>
<path fill="none" stroke="#363639" stroke-miterlimit="10" d="M227.1,706.9H91.5c-4.9,0-9-4.1-9-9V506.9c0-4.9,4.1-9,9-9h135.6
	c4.9,0,9,4.1,9,9v191.1C236,703,232,706.9,227.1,706.9z"/>
<circle fill="none" stroke="#D1D3D4" stroke-miterlimit="10" cx="159.3" cy="696.1" r="6.2"/>
<rect x="6.5" y="592.3" fill="none" stroke="#000000" stroke-miterlimit="10" width="59.6" height="91.9"/>
<rect x="87.6" y="518.7" fill="none" stroke="#363639" stroke-miterlimit="10" width="143.4" height="167.5"/>
<g>
	<line fill="none" stroke="#000000" stroke-miterlimit="10" x1="310.7" y1="579.3" x2="310.7" y2="701"/>
	<line fill="none" stroke="#000000" stroke-miterlimit="10" x1="386.1" y1="579.3" x2="386.1" y2="701"/>
	<path fill="none" stroke="#000000" stroke-miterlimit="10" d="M386.1,579.3c0-3.1-16.9-5.7-37.7-5.7c-20.8,0-37.7,2.5-37.7,5.7"/>
	<path fill="none" stroke="#000000" stroke-miterlimit="10" d="M386.1,701c0,3.1-16.9,5.7-37.7,5.7c-20.8,0-37.7-2.6-37.7-5.7"/>
</g>
<rect x="314.7" y="586.4" fill="none" stroke="#000000" stroke-miterlimit="10" width="67.5" height="106.8"/>
<path fill="none" stroke="#363639" stroke-miterlimit="10" d="M397.6,489.3c0-12.6,5.6-22.7,32.7-22.7"/>
<line fill="none" stroke="#363639" stroke-miterlimit="10" x1="397.6" y1="489.3" x2="397.6" y2="687.6"/>
<path fill="none" stroke="#363639" stroke-miterlimit="10" d="M397.6,684.1c0,12.6,5.6,22.7,32.7,22.7"/>
<line fill="none" stroke="#363639" stroke-miterlimit="10" x1="430.3" y1="706.9" x2="540.5" y2="706.9"/>
<path fill="none" stroke="#363639" stroke-miterlimit="10" d="M573.2,684.1c0,12.6-5.6,22.7-32.7,22.7"/>
<line fill="none" stroke="#363639" stroke-miterlimit="10" x1="573.2" y1="489.3" x2="573.2" y2="687.6"/>
<path fill="none" stroke="#363639" stroke-miterlimit="10" d="M573.2,489.3c0-12.6-5.6-22.7-32.7-22.7"/>
<line fill="none" stroke="#363639" stroke-miterlimit="10" x1="430.3" y1="466.5" x2="540.5" y2="466.5"/>
<rect x="413.9" y="491.7" fill="none" stroke="#363639" stroke-miterlimit="10" width="142.9" height="193.5"/>
<g>
	<line fill="none" stroke="#000000" stroke-miterlimit="10" x1="473.7" y1="600.5" x2="481.6" y2="608.4"/>
	<line fill="none" stroke="#000000" stroke-miterlimit="10" x1="481.6" y1="607.2" x2="496.8" y2="592"/>
	<circle fill="none" stroke="#000000" stroke-miterlimit="10" cx="485.4" cy="599.9" r="22.6"/>
</g>
<g>
	<line fill="none" stroke="#000000" stroke-miterlimit="10" x1="24.8" y1="638.6" x2="32.7" y2="646.5"/>
	<line fill="none" stroke="#000000" stroke-miterlimit="10" x1="32.7" y1="645.5" x2="48.1" y2="630.1"/>
	<circle fill="none" stroke="#000000" stroke-miterlimit="10" cx="36.5" cy="638.1" r="22.6"/>
</g>
<rect x="32.7" y="732.3" fill="none" width="129.3" height="23.1"/>
<text transform="matrix(1 0 0 1 74.7832 751.543)" fill="#25AFE5" font-family="'HelveticaNeue-Bold'" font-size="26.8837">iOS</text>
<rect x="361.3" y="732.3" fill="none" width="129.3" height="23.1"/>
<text transform="matrix(1 0 0 1 375.4971 751.543)" fill="#25AFE5" font-family="'HelveticaNeue-Bold'" font-size="26.8837">Android</text>
<g>
	<line fill="none" stroke="#000000" stroke-miterlimit="10" x1="141.3" y1="600.7" x2="149.3" y2="608.6"/>
	<line fill="none" stroke="#000000" stroke-miterlimit="10" x1="149.3" y1="607.5" x2="164.6" y2="592.2"/>
	<circle fill="none" stroke="#000000" stroke-miterlimit="10" cx="152.9" cy="600.1" r="22.6"/>
</g>
</svg>
